<?xml version="1.0" encoding="UTF-8" standalone="no"?>
<svg
   width="223.57001"
   height="223.567"
   viewBox="0 0 223.57001 223.567"
   version="1.1"
   xml:space="preserve"
   style="clip-rule:evenodd;fill-rule:evenodd;stroke-linejoin:round;stroke-miterlimit:2"
   id="svg305"
   sodipodi:docname="LinkedIn_Logo.svg"
   inkscape:version="1.1 (c68e22c387, 2021-05-23)"
   xmlns:inkscape="http://www.inkscape.org/namespaces/inkscape"
   xmlns:sodipodi="http://sodipodi.sourceforge.net/DTD/sodipodi-0.dtd"
   xmlns="http://www.w3.org/2000/svg"
   xmlns:svg="http://www.w3.org/2000/svg"
   xmlns:rdf="http://www.w3.org/1999/02/22-rdf-syntax-ns#"
   xmlns:cc="http://creativecommons.org/ns#"
   xmlns:dc="http://purl.org/dc/elements/1.1/"><title
   id="title1277">LinkedIn logo with transparent lettering</title><defs
   id="defs309" /><sodipodi:namedview
   id="namedview307"
   pagecolor="#ffffff"
   bordercolor="#666666"
   borderopacity="1.0"
   inkscape:pageshadow="2"
   inkscape:pageopacity="0.0"
   inkscape:pagecheckerboard="0"
   showgrid="false"
   inkscape:zoom="3.1406926"
   inkscape:cx="150.28532"
   inkscape:cy="112.71399"
   inkscape:window-width="2560"
   inkscape:window-height="1346"
   inkscape:window-x="-11"
   inkscape:window-y="1609"
   inkscape:window-maximized="1"
   inkscape:current-layer="svg305" />
    
<path
   d="m 190.49596,190.49442 h -33.12703 v -51.878 c 0,-12.371 -0.22091,-28.296 -17.22892,-28.296 -17.25407,0 -19.89396,13.478 -19.89396,27.395 v 52.775 H 87.119998 V 83.808416 h 31.800992 v 14.579 h 0.44602 c 6.47496,-11.071 18.55897,-17.708 31.37697,-17.232 33.57505,0 39.76602,22.084004 39.76602,50.815004 z M 49.741997,69.225416 h -0.0041 c -10.545999,0 -19.224004,-8.677 -19.224004,-19.223 0,-10.546 8.678005,-19.224 19.224004,-19.224 10.544996,0 19.221993,8.676 19.223996,19.22 v 0.004 c 0,10.544 -8.675991,19.222 -19.220002,19.223 M 66.304999,190.49442 H 33.143994 V 83.808416 H 66.304999 Z M 207.01002,0.01541623 H 16.496995 C 7.5540006,-0.08558377 0.10900003,7.1864162 0,16.129416 V 207.43342 c 0.10499992,8.948 7.5489999,16.228 16.496995,16.132 H 207.01002 c 8.9699,0.113 16.43994,-7.166 16.55998,-16.132 V 16.116416 C 223.44996,7.1544162 215.97005,-0.11658377 207.01002,0.00141623"
   style="clip-rule:evenodd;display:inline;fill:#0a66c2;fill-rule:nonzero;stroke-width:0.999999;stroke-linejoin:round;stroke-miterlimit:2"
   id="path301"
   sodipodi:nodetypes="ccsssccccccccccsssssccccccccccccccc" /><metadata
   id="metadata1275"><rdf:RDF><cc:Work
       rdf:about=""><dc:title>LinkedIn logo with transparent lettering</dc:title></cc:Work></rdf:RDF></metadata></svg>
